<?xml version="1.0" standalone="no"?><!DOCTYPE svg PUBLIC "-//W3C//DTD SVG 1.1//EN" "http://www.w3.org/Graphics/SVG/1.1/DTD/svg11.dtd"><svg t="1528277200259" class="icon" style="" viewBox="0 0 1024 1024" version="1.1" xmlns="http://www.w3.org/2000/svg" p-id="21687" xmlns:xlink="http://www.w3.org/1999/xlink" width="200" height="200"><defs><style type="text/css"></style></defs><path d="M365.75 150.083c-50.063 26.063-81.188 46.312-90.563 59.063-8.813 12-8.438 96.938 0.938 182.25l4.125 37.875-13.688 18.375c-7.688 10.313-17.063 24.187-21 30.937-8.625 14.813-8.625 16.125-3.938 67.125l3.188 34.125 10.313 9c15.75 14.063 24.75 23.813 47.625 52.313 38.25 47.813 63 93.375 70.5 130.313 2.063 10.687 3.563 13.5 11.813 21.938 5.25 5.438 9.937 9.375 10.5 8.812 0.562-0.563 3.188-8.25 5.813-17.25l4.875-16.313 210.188-0.938 5.25 17.813c3 9.75 5.813 17.813 6.563 17.813 0.563 0 5.062-3.938 9.75-9 7.875-7.875 9.188-10.5 12.563-24.75 5.063-22.125 9.75-34.125 21.75-56.625 23.063-42.75 50.625-79.5 85.688-114.188l19.875-19.688 3-31.875c1.688-17.438 3.375-36.375 3.938-42 0.938-9 0.188-12-4.688-21.563-3-6.188-11.438-19.313-18.75-29.063-7.313-9.75-14.438-19.688-16.125-21.938-2.625-3.75-2.625-6.188 0-27.188 6.563-51.75 7.5-68.25 7.688-126.187 0-55.125-0.375-60.563-3.563-67.125-6.188-12.375-33-30.75-87.75-59.813-19.125-10.125-32.438-16.125-33.188-15-0.563 1.125-17.063 57.375-36.75 124.875l-35.437 123h-89.063l-4.5-14.625c-2.438-7.875-18.562-63.938-36.188-124.5-17.437-60.563-32.063-110.25-32.625-110.25-0.562 0-13.125 6.375-28.125 14.25zM349.812 515.52c61.688 16.875 107.25 22.313 174.375 21 61.125-1.313 93.938-6 150.75-21.375 30.563-8.438 30.188-8.625 30.188 17.25v17.25l-22.5 10.688c-21.938 10.125-23.063 10.5-38.438 10.5-12.938 0-58.5-6.75-70.688-10.5-2.438-0.75-3.375-3-3.375-7.688v-6.562l-8.813 1.313c-7.688 1.125-86.25 1.5-102.75 0.375-5.063-0.375-5.625 0.188-6.188 5.625-0.375 3.563-1.875 6.375-3.75 6.938-11.812 3.562-57.563 10.5-69.938 10.5-14.063 0-16.125-0.563-38.062-10.5l-23.25-10.688 0.938-18c0.938-21 1.5-22.688 5.063-22.688 1.5 0 13.313 3 26.438 6.563z" p-id="21688" fill="#bfbfbf"></path><path d="M408.312 801.458c-3.75 12.375-7.688 22.5-8.625 22.5s-7.875-6.375-15.563-14.25l-14.063-14.25-10.688 17.063c-6.188 10.125-9.938 18.188-9.188 19.5 1.125 1.875 46.875 64.5 48.75 66.75 0.375 0.563 4.875-3.187 10.125-8.438l9.375-9.188h187.688l7.5 8.813c4.125 5.062 8.25 9 9 9 1.688 0 50.625-66.375 50.625-68.813 0-2.25-19.5-34.313-21-34.313-0.75 0-6.938 6.375-14.063 14.063-6.938 7.688-13.5 14.063-14.625 14.063-1.125 0-5.063-9.938-8.813-22.125l-6.563-21.938-192.938-0.938-6.938 22.5z" p-id="21689" fill="#bfbfbf"></path></svg>